<svg width="22" height="20" viewBox="0 0 22 20" fill="none" xmlns="http://www.w3.org/2000/svg">
<path d="M10.0893 1.25371C10.3968 0.349702 11.6754 0.349701 11.9828 1.25371L13.7323 6.39753C13.8701 6.80292 14.2508 7.07554 14.679 7.07554H20.2397C21.2194 7.07554 21.6147 8.33838 20.8099 8.89704L16.391 11.9642C16.0244 12.2186 15.8708 12.6852 16.0144 13.1077L17.7207 18.1244C18.0313 19.0377 16.9962 19.818 16.2037 19.2679L11.6063 16.0768C11.2634 15.8388 10.8088 15.8388 10.4659 16.0768L5.86847 19.2679C5.07595 19.818 4.04089 19.0377 4.35152 18.1244L6.05773 13.1077C6.20142 12.6852 6.04779 12.2186 5.68119 11.9642L1.2623 8.89704C0.45743 8.33838 0.852752 7.07554 1.8325 7.07554H7.39316C7.82135 7.07554 8.20202 6.80292 8.3399 6.39753L10.0893 1.25371Z" fill="#120D0E"/>
</svg>
