<svg width="56" height="56" viewBox="0 0 56 56" fill="none" xmlns="http://www.w3.org/2000/svg">
<g clip-path="url(#clip0)">
<path d="M27.9999 0.000976562C12.5359 0.000976562 0 12.5369 0 28.0009C0 43.465 12.5359 56.0009 27.9999 56.0009C43.464 56.0009 56 43.465 56 28.0009C55.9999 12.5369 43.4638 0.000976562 27.9999 0.000976562ZM20.5295 41.5376H14.3818V21.6762H20.5295V41.5376ZM17.4264 19.0752C15.4186 19.0752 13.791 17.4343 13.791 15.4105C13.791 13.3864 15.4188 11.7456 17.4264 11.7456C19.4339 11.7456 21.0616 13.3864 21.0616 15.4105C21.0617 17.4344 19.434 19.0752 17.4264 19.0752ZM43.5679 41.5376H37.45V31.112C37.45 28.2526 36.3639 26.6564 34.1029 26.6564C31.6421 26.6564 30.3566 28.3188 30.3566 31.112V41.5376H24.4602V21.6762H30.3566V24.3512C30.3566 24.3512 32.1302 21.0704 36.3416 21.0704C40.5532 21.0704 43.568 23.6419 43.568 28.9617L43.5679 41.5376Z" fill="url(#paint0_linear)"/>
</g>
<defs>
<linearGradient id="paint0_linear" x1="8.20098" y1="8.20196" x2="47.7989" y2="47.7999" gradientUnits="userSpaceOnUse">
<stop stop-color="#2489BE"/>
<stop offset="1" stop-color="#0575B3"/>
</linearGradient>
<clipPath id="clip0">
<rect width="56" height="56" fill="white"/>
</clipPath>
</defs>
</svg>
