<svg xmlns="http://www.w3.org/2000/svg">
          <symbol id="linkedin">
           <g clip-path="url(#clip0)">
<path d="M27.9999 0.000976562C12.5359 0.000976562 0 12.5369 0 28.0009C0 43.465 12.5359 56.0009 27.9999 56.0009C43.464 56.0009 56 43.465 56 28.0009C55.9999 12.5369 43.4638 0.000976562 27.9999 0.000976562ZM20.5295 41.5376H14.3818V21.6762H20.5295V41.5376ZM17.4264 19.0752C15.4186 19.0752 13.791 17.4343 13.791 15.4105C13.791 13.3864 15.4188 11.7456 17.4264 11.7456C19.4339 11.7456 21.0616 13.3864 21.0616 15.4105C21.0617 17.4344 19.434 19.0752 17.4264 19.0752ZM43.5679 41.5376H37.45V31.112C37.45 28.2526 36.3639 26.6564 34.1029 26.6564C31.6421 26.6564 30.3566 28.3188 30.3566 31.112V41.5376H24.4602V21.6762H30.3566V24.3512C30.3566 24.3512 32.1302 21.0704 36.3416 21.0704C40.5532 21.0704 43.568 23.6419 43.568 28.9617L43.5679 41.5376Z" fill="url(#paint0_linear)"/>
</g>
<defs>
<linearGradient id="paint0_linear" x1="8.20098" y1="8.20196" x2="47.7989" y2="47.7999" gradientUnits="userSpaceOnUse">
<stop stop-color="#2489BE"/>
<stop offset="1" stop-color="#0575B3"/>
</linearGradient>
<clipPath id="clip0">
<rect width="56" height="56" fill="white"/>
</clipPath>
</defs>
          </symbol>
                <symbol id="telegram">
           <path d="M28 56C43.464 56 56 43.464 56 28C56 12.536 43.464 0 28 0C12.536 0 0 12.536 0 28C0 43.464 12.536 56 28 56Z" fill="#34AADF"/>
<path d="M11.6532 27.7571C11.6532 27.7571 25.6531 22.0115 30.5085 19.9883C32.3699 19.1791 38.6819 16.5894 38.6819 16.5894C38.6819 16.5894 41.5953 15.4566 41.3525 18.208C41.2715 19.341 40.6241 23.3062 39.9768 27.5953C39.0056 33.6647 37.9536 40.3005 37.9536 40.3005C37.9536 40.3005 37.7918 42.1618 36.4161 42.4855C35.0404 42.8092 32.7744 41.3526 32.3699 41.0288C32.0461 40.7861 26.3005 37.1444 24.1965 35.364C23.63 34.8785 22.9826 33.9075 24.2773 32.7745C27.1907 30.104 30.6704 26.7861 32.7744 24.682C33.7456 23.7109 34.7166 21.445 30.6704 24.1964C24.9248 28.1618 19.2601 31.8843 19.2601 31.8843C19.2601 31.8843 17.9653 32.6935 15.5376 31.9652C13.1098 31.2369 10.2774 30.2658 10.2774 30.2658C10.2774 30.2658 8.33532 29.0519 11.6532 27.7571Z" fill="white"/>
          </symbol>
           <symbol id="github">
          <g clip-path="url(#clip0)">
<path d="M28.7633 0C12.8798 0 0 12.8365 0 28.6716C0 41.3397 8.24156 52.0869 19.6702 55.8782C21.1076 56.1435 21.6355 55.2562 21.6355 54.4988C21.6355 53.8152 21.6087 51.5565 21.5965 49.1607C13.5943 50.8951 11.9057 45.7778 11.9057 45.7778C10.5974 42.4638 8.71213 41.5827 8.71213 41.5827C6.10255 39.8031 8.90884 39.8396 8.90884 39.8396C11.7972 40.042 13.3181 42.7943 13.3181 42.7943C15.8835 47.1776 20.0469 45.9103 21.6883 45.1779C21.9464 43.3246 22.6919 42.0599 23.5144 41.3439C17.1258 40.6187 10.4097 38.1603 10.4097 27.1742C10.4097 24.0441 11.5333 21.4862 13.3734 19.4784C13.0747 18.7561 12.0903 15.84 13.652 11.8907C13.652 11.8907 16.0674 11.1201 21.564 14.8297C23.8582 14.1942 26.3189 13.8758 28.7633 13.865C31.2078 13.8758 33.6703 14.1942 35.969 14.8297C41.4591 11.1201 43.8711 11.8907 43.8711 11.8907C45.4366 15.84 44.4517 18.7561 44.153 19.4784C45.9972 21.4862 47.1132 24.0438 47.1132 27.1742C47.1132 38.1864 40.3844 40.6113 33.9796 41.321C35.0112 42.2108 35.9304 43.9558 35.9304 46.6305C35.9304 50.4668 35.897 53.5544 35.897 54.4988C35.897 55.2618 36.4148 56.1559 37.8729 55.8743C49.2953 52.0788 57.5264 41.3354 57.5264 28.6716C57.5264 12.8365 44.6484 0 28.7633 0Z" fill="#161614"/>
<path d="M10.7728 40.8434C10.7097 40.9857 10.4845 41.0284 10.2799 40.9308C10.0713 40.8373 9.95395 40.643 10.0216 40.5C10.0837 40.3534 10.3088 40.3125 10.517 40.411C10.7261 40.5043 10.8452 40.7004 10.7728 40.8434ZM12.1877 42.1017C12.0505 42.2285 11.7823 42.1696 11.6003 41.9693C11.4121 41.7694 11.3769 41.5022 11.5161 41.3734C11.6576 41.2468 11.9177 41.3059 12.1063 41.5061C12.2944 41.7082 12.331 41.9738 12.1875 42.1019L12.1877 42.1017ZM13.1584 43.7118C12.982 43.8339 12.6937 43.7194 12.5157 43.4644C12.3395 43.2096 12.3395 42.9038 12.5195 42.7813C12.6982 42.6587 12.982 42.7689 13.1625 43.0219C13.3384 43.2811 13.3384 43.587 13.1582 43.712L13.1584 43.7118ZM14.7998 45.5766C14.6421 45.7497 14.3064 45.7034 14.0605 45.4668C13.8092 45.2357 13.7391 44.9076 13.8972 44.7342C14.0567 44.5606 14.3944 44.6094 14.6421 44.844C14.8918 45.0747 14.9681 45.4052 14.8 45.5766H14.7998ZM16.9212 46.2062C16.8519 46.4306 16.5284 46.5327 16.2027 46.4374C15.8774 46.3391 15.6644 46.076 15.7301 45.8491C15.7978 45.6231 16.1226 45.5168 16.4508 45.6189C16.7757 45.7167 16.9891 45.9777 16.9214 46.2062H16.9212ZM19.3358 46.4731C19.344 46.7097 19.0676 46.9058 18.7256 46.91C18.3816 46.9175 18.1035 46.7261 18.0999 46.4936C18.0999 46.2548 18.3699 46.0605 18.7137 46.0549C19.0557 46.0481 19.3358 46.2381 19.3358 46.4731ZM21.7077 46.3825C21.7487 46.6132 21.5109 46.8502 21.1714 46.9132C20.8376 46.9739 20.5285 46.8316 20.4859 46.6029C20.4444 46.3663 20.6867 46.1295 21.0198 46.0681C21.36 46.0092 21.6643 46.148 21.7077 46.3825Z" fill="#161614"/>
</g>
<defs>
<clipPath id="clip0">
<rect width="57.75" height="56" fill="white"/>
</clipPath>
</defs>
</symbol>
    <symbol id="star">
    <path d="M10.0893 1.25371C10.3968 0.349702 11.6754 0.349701 11.9828 1.25371L13.7323 6.39753C13.8701 6.80292 14.2508 7.07554 14.679 7.07554H20.2397C21.2194 7.07554 21.6147 8.33838 20.8099 8.89704L16.391 11.9642C16.0244 12.2186 15.8708 12.6852 16.0144 13.1077L17.7207 18.1244C18.0313 19.0377 16.9962 19.818 16.2037 19.2679L11.6063 16.0768C11.2634 15.8388 10.8088 15.8388 10.4659 16.0768L5.86847 19.2679C5.07595 19.818 4.04089 19.0377 4.35152 18.1244L6.05773 13.1077C6.20142 12.6852 6.04779 12.2186 5.68119 11.9642L1.2623 8.89704C0.45743 8.33838 0.852752 7.07554 1.8325 7.07554H7.39316C7.82135 7.07554 8.20202 6.80292 8.3399 6.39753L10.0893 1.25371Z"/>
    </symbol>  
    <symbol id="skills-btn">
<path d="M3.76 0.906616L16 13.1199L28.24 0.906616L32 4.66662L16 20.6666L0 4.66662L3.76 0.906616Z" fill="#120D0E"/>
    </symbol> 
        </svg>