<svg width="56" height="56" viewBox="0 0 56 56" fill="none" xmlns="http://www.w3.org/2000/svg">
<path d="M28 56C43.464 56 56 43.464 56 28C56 12.536 43.464 0 28 0C12.536 0 0 12.536 0 28C0 43.464 12.536 56 28 56Z" fill="#34AADF"/>
<path d="M11.6532 27.7571C11.6532 27.7571 25.6531 22.0115 30.5085 19.9883C32.3699 19.1791 38.6819 16.5894 38.6819 16.5894C38.6819 16.5894 41.5953 15.4566 41.3525 18.208C41.2715 19.341 40.6241 23.3062 39.9768 27.5953C39.0056 33.6647 37.9536 40.3005 37.9536 40.3005C37.9536 40.3005 37.7918 42.1618 36.4161 42.4855C35.0404 42.8092 32.7744 41.3526 32.3699 41.0288C32.0461 40.7861 26.3005 37.1444 24.1965 35.364C23.63 34.8785 22.9826 33.9075 24.2773 32.7745C27.1907 30.104 30.6704 26.7861 32.7744 24.682C33.7456 23.7109 34.7166 21.445 30.6704 24.1964C24.9248 28.1618 19.2601 31.8843 19.2601 31.8843C19.2601 31.8843 17.9653 32.6935 15.5376 31.9652C13.1098 31.2369 10.2774 30.2658 10.2774 30.2658C10.2774 30.2658 8.33532 29.0519 11.6532 27.7571Z" fill="white"/>
</svg>
